<svg xmlns="http://www.w3.org/2000/svg" width="70" height="70">
  <path id="performance" fill="#266db0" d="M61.769 8.329c-7.23-7.23-17.488-9.77-26.77-7.523 4.886 1.173 9.477 3.615 13.288 7.425l6.643 6.644.098.097.097.098C60.401 20.443 61.77 28.357 59.23 35c-.88 2.345-2.247 4.592-4.201 6.448l-13.58 13.58c-1.856 1.856-4.103 3.224-6.448 4.201 6.643 2.54 14.557 1.172 19.93-4.103l6.839-6.84c3.81-3.81 6.252-8.401 7.425-13.286 2.247-9.281-.196-19.441-7.425-26.671zm-46.7 46.797l-.195-.196C9.6 49.557 8.231 41.644 10.771 35c.88-2.345 2.247-4.592 4.201-6.448l13.58-13.58c1.856-1.856 4.103-3.224 6.448-4.2-6.644-2.54-14.557-1.173-19.93 4.103l-6.84 6.838C4.42 25.523 1.979 30.115.807 35c-2.247 9.281.195 19.54 7.425 26.671l.098.098c7.23 7.23 17.39 9.672 26.67 7.425-4.884-1.172-9.476-3.615-13.286-7.425l-6.643-6.643z"/>
  <path id="confiance" fill="#5bd1a0" d="M69.194 35c-1.173 4.885-3.615 9.477-7.425 13.287l-6.644 6.643-.097.098-.098.098C49.557 60.4 41.643 61.769 35 59.229c-2.345-.88-4.592-2.247-6.448-4.201l-13.58-13.58c-1.856-1.856-3.224-4.103-4.201-6.448-2.54 6.644-1.172 14.557 4.103 19.93l.196.196 6.643 6.643c3.81 3.81 8.402 6.253 13.287 7.425 9.281 2.247 19.54-.195 26.671-7.425l.098-.098c7.23-7.131 9.672-17.39 7.425-26.67zM55.125 15.07l-6.838-6.839C44.477 4.421 39.885 1.98 35 .806c-9.281-2.247-19.54.196-26.671 7.425l-.098.098C1 15.559-1.441 25.719.806 35c1.172-4.885 3.615-9.476 7.425-13.287l6.643-6.643.098-.098.098-.097C20.443 9.599 28.356 8.23 35 10.77c2.345.88 4.592 2.247 6.448 4.201l13.58 13.58c1.856 1.856 3.224 4.103 4.2 6.448 2.54-6.643 1.173-14.557-4.103-19.93z"/>
  <path id="shadows" fill="#020202" opacity=".2" d="M13.702 39.885c-1.172-1.465-2.15-3.224-2.833-4.885-2.54 6.644-1.173 14.557 4.103 19.93-4.006-4.103-4.494-10.453-1.27-15.045zm42.693-9.77c1.173 1.466 2.15 3.224 2.834 4.885 2.54-6.643 1.172-14.557-4.104-19.93 4.006 4.103 4.397 10.454 1.27 15.045zm-16.413 26.28c-1.465 1.173-3.224 2.15-4.884 2.834 6.643 2.54 14.556 1.172 19.93-4.103-4.201 4.005-10.552 4.396-15.046 1.27zm-9.867-42.693C31.58 12.53 33.339 11.553 35 10.87c-6.644-2.54-14.557-1.172-19.93 4.103 4.103-4.005 10.453-4.494 15.045-1.27z"/>
</svg>
